<svg width="250" height="250" viewBox="0 0 250 250" fill="none" xmlns="http://www.w3.org/2000/svg">
<rect width="250" height="250" fill="#101010"/>
<path d="M58.1779 190.915V192.402H28.0723V190.915C31.6651 190.915 34.3907 190.729 36.2491 190.357C38.2314 189.861 39.718 188.993 40.7092 187.754C41.7004 186.39 42.6295 184.407 43.4967 181.804L82.7084 57.5979H85.6817L126.194 190.915H138.274V192.402H99.6195V190.915H113.186C113.062 189.799 112.814 188.621 112.442 187.382C112.071 186.018 111.699 184.717 111.327 183.477L101.106 149.451H55.762L45.1693 182.362C44.9214 183.353 44.7356 184.221 44.6118 184.965C44.4879 185.584 44.4259 186.266 44.4259 187.01C44.4259 188.249 44.9214 189.241 45.9126 189.985C46.9038 190.605 49.0099 190.915 52.2311 190.915H58.1779ZM56.1337 147.963H100.735L78.9916 75.2619L56.1337 147.963Z" fill="white"/>
<path d="M198.512 163.768C198.512 158.19 197.026 152.612 194.052 147.034C191.079 141.455 186.122 135.382 179.185 128.812C173.857 123.605 169.583 119.019 166.362 115.052C163.14 110.962 160.787 106.995 159.3 103.152C157.937 99.1857 157.256 94.8473 157.256 90.1368C157.256 84.063 158.68 78.4849 161.53 73.4025C164.503 68.3203 168.84 64.2916 174.539 61.3166C180.238 58.2177 187.176 56.6682 195.353 56.6682C199.07 56.6682 201.857 56.9161 203.716 57.412C205.574 57.9078 207.184 58.4036 208.547 58.8994C209.909 59.3953 211.644 59.6432 213.751 59.6432C214.866 59.6432 215.981 59.5812 217.096 59.4573C218.211 59.3333 219.387 59.0234 220.627 58.5276H221.928L216.91 87.3478H215.052C215.299 85.8603 215.484 84.3728 215.609 82.8853C215.733 81.3978 215.795 80.0342 215.795 78.7947C215.795 71.7291 214.308 66.5848 211.335 63.3619C208.362 60.139 202.972 58.5276 195.167 58.5276C188.972 58.5276 183.892 59.7052 179.929 62.0604C176.087 64.4156 173.238 67.5145 171.379 71.3572C169.521 75.1999 168.592 79.4764 168.592 84.1869C168.468 90.2608 169.893 96.0248 172.867 101.479C175.84 106.933 181.044 113.193 188.477 120.259C193.556 125.093 197.644 129.493 200.742 133.46C203.839 137.427 206.069 141.331 207.432 145.174C208.919 149.017 209.662 153.169 209.662 157.632C209.662 164.45 208.051 170.585 204.831 176.04C201.609 181.37 197.087 185.584 191.265 188.683C185.565 191.782 178.813 193.332 171.008 193.332C166.3 193.332 162.273 192.836 158.928 191.844C155.707 190.977 152.548 190.543 149.451 190.543C148.335 190.543 147.22 190.605 146.105 190.729C144.99 190.729 143.813 190.977 142.575 191.472H141.274L146.849 159.491H148.707C148.459 161.475 148.212 163.458 147.964 165.441C147.716 167.301 147.592 169.098 147.592 170.833C147.592 178.023 149.327 183.291 152.796 186.638C156.264 189.985 162.397 191.658 171.193 191.658C177.513 191.658 182.654 190.357 186.619 187.754C190.707 185.151 193.68 181.742 195.539 177.527C197.521 173.313 198.512 168.726 198.512 163.768Z" fill="#B7B7A4"/>
</svg>
